<svg id="Layer_1" data-name="Layer 1" xmlns="http://www.w3.org/2000/svg" xmlns:xlink="http://www.w3.org/1999/xlink" viewBox="0 0 48.82 48.82"><defs><linearGradient id="linear-gradient" x1="0.99" y1="0.99" x2="31.98" y2="31.98" gradientUnits="userSpaceOnUse"><stop offset="0" stop-color="#f26322"/><stop offset="0.96" stop-color="#b53725"/></linearGradient><linearGradient id="linear-gradient-2" x1="2.34" y1="2.34" x2="31.54" y2="31.54" gradientUnits="userSpaceOnUse"><stop offset="0.04" stop-color="#b53725"/><stop offset="1" stop-color="#f26322"/></linearGradient></defs><path d="M24.41,48.82A24.41,24.41,0,1,1,48.82,24.41,24.44,24.44,0,0,1,24.41,48.82Z" fill="url(#linear-gradient)"/><rect x="3.65" y="3.65" width="41.52" height="41.52" rx="15.38" fill="url(#linear-gradient-2)"/><path d="M34.28,21.84H32.1a.91.91,0,0,1-.91-.91V19.58a6.28,6.28,0,0,0-6.28-6.28H19.56a6.28,6.28,0,0,0-6.28,6.28v9.1a6.84,6.84,0,0,0,6.84,6.84h8.4a7,7,0,0,0,7-7V23.11A1.26,1.26,0,0,0,34.28,21.84ZM20.89,18.69h3.36a2,2,0,0,1,0,3.94H20.89a2,2,0,0,1,0-3.94Zm8.85,9.41A1.74,1.74,0,0,1,28,29.84H20.66a1.74,1.74,0,0,1-1.74-1.74v-.45a1.74,1.74,0,0,1,1.74-1.75H28a1.74,1.74,0,0,1,1.74,1.75Z" fill="#fff"/></svg>