<svg id="Layer_1" data-name="Layer 1" xmlns="http://www.w3.org/2000/svg" xmlns:xlink="http://www.w3.org/1999/xlink" viewBox="0 0 48.82 48.82"><defs><linearGradient id="linear-gradient" x1="5.51" y1="5.51" x2="31.7" y2="31.69" gradientUnits="userSpaceOnUse"><stop offset="0" stop-color="#0981c4"/><stop offset="1" stop-color="#253979"/></linearGradient><linearGradient id="linear-gradient-2" x1="6.6" y1="6.6" x2="31.27" y2="31.27" gradientUnits="userSpaceOnUse"><stop offset="0" stop-color="#253979"/><stop offset="1" stop-color="#0981c4"/></linearGradient></defs><path d="M24.41,48.82A24.41,24.41,0,1,1,48.82,24.41,24.44,24.44,0,0,1,24.41,48.82Z" fill="url(#linear-gradient)"/><rect x="3.65" y="3.65" width="41.52" height="41.52" rx="15.38" fill="url(#linear-gradient-2)"/><path d="M25.21,18.26a2.08,2.08,0,0,1,2.24-2.34,2.92,2.92,0,0,1,1.3.3L30,13.42a6.54,6.54,0,0,0-2.93-.78,5.7,5.7,0,0,0-6,6v.84H18.81V22.8H21.1V36.18h4.11V22.8h3.63V19.46H25.21Z" fill="#fffefa"/></svg>