<svg id="Layer_1" data-name="Layer 1" xmlns="http://www.w3.org/2000/svg" xmlns:xlink="http://www.w3.org/1999/xlink" viewBox="0 0 48.82 48.82"><defs><linearGradient id="linear-gradient" x1="3.21" y1="3.21" x2="42.39" y2="42.39" gradientUnits="userSpaceOnUse"><stop offset="0" stop-color="#fedf2a"/><stop offset="0.05" stop-color="#fdd82c"/><stop offset="0.13" stop-color="#f8c333"/><stop offset="0.23" stop-color="#f2a23d"/><stop offset="0.34" stop-color="#e8734c"/><stop offset="0.46" stop-color="#dc395e"/><stop offset="0.51" stop-color="#d61968"/><stop offset="0.54" stop-color="#c71b6b"/><stop offset="0.62" stop-color="#9f2174"/><stop offset="0.7" stop-color="#81267a"/><stop offset="0.78" stop-color="#6b297f"/><stop offset="0.85" stop-color="#5d2b82"/><stop offset="0.92" stop-color="#592c83"/></linearGradient><linearGradient id="linear-gradient-2" x1="5.72" y1="5.72" x2="46.34" y2="46.34" gradientUnits="userSpaceOnUse"><stop offset="0.08" stop-color="#592c83"/><stop offset="0.15" stop-color="#5d2b82"/><stop offset="0.22" stop-color="#6b297f"/><stop offset="0.3" stop-color="#81267a"/><stop offset="0.38" stop-color="#9f2174"/><stop offset="0.46" stop-color="#c71b6b"/><stop offset="0.49" stop-color="#d61968"/><stop offset="0.54" stop-color="#dc395e"/><stop offset="0.66" stop-color="#e8734c"/><stop offset="0.77" stop-color="#f2a23d"/><stop offset="0.87" stop-color="#f8c333"/><stop offset="0.95" stop-color="#fdd82c"/><stop offset="1" stop-color="#fedf2a"/></linearGradient></defs><path d="M24.41,48.82A24.41,24.41,0,1,1,48.82,24.41,24.44,24.44,0,0,1,24.41,48.82Z" fill="url(#linear-gradient)"/><rect x="3.65" y="3.65" width="41.52" height="41.52" rx="15.38" fill="url(#linear-gradient-2)"/><path d="M30.8,13.22H18a4.49,4.49,0,0,0-4.49,4.49v13.4A4.49,4.49,0,0,0,18,35.6H30.8a4.49,4.49,0,0,0,4.49-4.49V17.71A4.49,4.49,0,0,0,30.8,13.22ZM33,30.5a2.78,2.78,0,0,1-2.78,2.79H18.63a2.79,2.79,0,0,1-2.79-2.78V18.32a2.79,2.79,0,0,1,2.79-2.79H30.2A2.78,2.78,0,0,1,33,18.32V30.5Z" fill="#fffefa"/><path d="M24.41,17.76a6.65,6.65,0,1,0,6.65,6.65A6.65,6.65,0,0,0,24.41,17.76Zm0,11a4.35,4.35,0,1,1,4.35-4.35A4.35,4.35,0,0,1,24.41,28.76Z" fill="#fffefa"/><rect x="29.1" y="17.43" width="1.98" height="1.98" rx="0.73" fill="#fffefa"/></svg>