<svg id="Layer_1" data-name="Layer 1" xmlns="http://www.w3.org/2000/svg" xmlns:xlink="http://www.w3.org/1999/xlink" viewBox="0 0 48.82 48.82"><defs><linearGradient id="linear-gradient" x1="5.81" y1="5.81" x2="27.95" y2="27.95" gradientUnits="userSpaceOnUse"><stop offset="0" stop-color="#e21f26"/><stop offset="1" stop-color="#921a1d"/></linearGradient><linearGradient id="linear-gradient-2" x1="6.89" y1="6.89" x2="27.75" y2="27.75" gradientUnits="userSpaceOnUse"><stop offset="0" stop-color="#921a1d"/><stop offset="1" stop-color="#e21f26"/></linearGradient></defs><path d="M24.41,48.82A24.41,24.41,0,1,1,48.82,24.41,24.44,24.44,0,0,1,24.41,48.82Z" fill="url(#linear-gradient)"/><rect x="3.65" y="3.65" width="41.52" height="41.52" rx="15.38" fill="url(#linear-gradient-2)"/><path d="M19.08,37.34c-.76-.16-2-2.24-.08-7.41s1.31-5.46,1.1-7.07.13-5.25,3.09-4.95c2.5.25,1.82,3.28.93,5.31S22.68,26.63,24,28s4.64.22,5.95-2.38,1.87-7-.61-9.44a7.31,7.31,0,0,0-10.63.6C15.65,20.49,17,23.39,18,25.3s-.82,2.45-2.26.8-3.35-6.93.46-11,10.17-5.08,14.65-1.54a10,10,0,0,1,3.47,10.91c-3.16,10.16-11.66,6.32-12,5-.2,1.06-.2,2.32-.37,3.76S20.73,37.7,19.08,37.34Z" fill="#fffffe"/></svg>