<svg id="Layer_1" data-name="Layer 1" xmlns="http://www.w3.org/2000/svg" xmlns:xlink="http://www.w3.org/1999/xlink" viewBox="0 0 48.82 48.82"><defs><linearGradient id="linear-gradient" x1="5.44" y1="5.44" x2="39.38" y2="39.38" gradientUnits="userSpaceOnUse"><stop offset="0" stop-color="#44a9df"/><stop offset="1" stop-color="#1c80b5"/></linearGradient><linearGradient id="linear-gradient-2" x1="7.62" y1="7.62" x2="42.37" y2="42.37" gradientUnits="userSpaceOnUse"><stop offset="0" stop-color="#1c80b5"/><stop offset="1" stop-color="#44a9df"/></linearGradient></defs><path d="M24.41,48.82A24.41,24.41,0,1,1,48.82,24.41,24.44,24.44,0,0,1,24.41,48.82Z" fill="url(#linear-gradient)"/><rect x="3.65" y="3.65" width="41.52" height="41.52" rx="15.38" fill="url(#linear-gradient-2)"/><path d="M36.42,17c-.44.18-2.62.64-2.62.64A5.3,5.3,0,0,0,35.71,15a8.17,8.17,0,0,1-3.25,1.13,4.26,4.26,0,0,0-4.55-1.28c-3.35.73-3.88,3.44-3.84,5.81-2.65-.07-7.48-1.43-10-5.08a5.07,5.07,0,0,0,1.49,6.53,6.81,6.81,0,0,1-2.25-.59,5.33,5.33,0,0,0,3.91,5,7.83,7.83,0,0,1-2.1,0,5.4,5.4,0,0,0,4.64,3.45,12.76,12.76,0,0,1-7.31,2c9.71,5.63,18.7-.44,20.91-7.8a11.79,11.79,0,0,0,.45-4.51A20.57,20.57,0,0,0,36.42,17Z" fill="#fffffe"/><path d="M36.42,17c-.44.18-2.62.64-2.62.64A5.3,5.3,0,0,0,35.71,15a8.17,8.17,0,0,1-3.25,1.13,4.26,4.26,0,0,0-4.55-1.28c-3.35.73-3.88,3.44-3.84,5.81-2.65-.07-7.48-1.43-10-5.08a5.07,5.07,0,0,0,1.49,6.53,6.81,6.81,0,0,1-2.25-.59,5.33,5.33,0,0,0,3.91,5,7.83,7.83,0,0,1-2.1,0,5.4,5.4,0,0,0,4.64,3.45,12.76,12.76,0,0,1-7.31,2c9.71,5.63,18.7-.44,20.91-7.8a11.79,11.79,0,0,0,.45-4.51A20.57,20.57,0,0,0,36.42,17Z" fill="#fffffe"/></svg>