<svg id="Layer_1" data-name="Layer 1" xmlns="http://www.w3.org/2000/svg" xmlns:xlink="http://www.w3.org/1999/xlink" viewBox="0 0 48.82 48.82"><defs><linearGradient id="linear-gradient" x1="4.62" y1="4.62" x2="31.95" y2="31.95" gradientUnits="userSpaceOnUse"><stop offset="0" stop-color="#e21f26"/><stop offset="1" stop-color="#921a1d"/></linearGradient><linearGradient id="linear-gradient-2" x1="5.77" y1="5.77" x2="31.52" y2="31.52" gradientUnits="userSpaceOnUse"><stop offset="0" stop-color="#921a1d"/><stop offset="1" stop-color="#e21f26"/></linearGradient></defs><path d="M24.41,48.82A24.41,24.41,0,1,1,48.82,24.41,24.44,24.44,0,0,1,24.41,48.82Z" fill="url(#linear-gradient)"/><rect x="3.65" y="3.65" width="41.52" height="41.52" rx="15.38" fill="url(#linear-gradient-2)"/><rect x="12.5" y="15.96" width="23.82" height="16.9" rx="6.26" fill="#fffefa"/><path d="M28.23,24.75l-7.17,5a.4.4,0,0,1-.64-.33v-10a.41.41,0,0,1,.64-.34l7.17,5A.41.41,0,0,1,28.23,24.75Z" fill="#e71b40"/></svg>